Coordinates
version=1
nRows=16
nColumns=40
inDegrees=yes

Units are S.I. units (second, meters, Newtons, ...)
If the header above contains a line with 'inDegrees', this indicates whether rotational values are in degrees (yes) or radians (no).

endheader
time	pelvis_tilt	pelvis_list	pelvis_rotation	pelvis_tx	pelvis_ty	pelvis_tz	hip_flexion_r	hip_adduction_r	hip_rotation_r	knee_angle_r	knee_angle_r_beta	ankle_angle_r	subtalar_angle_r	mtp_angle_r	hip_flexion_l	hip_adduction_l	hip_rotation_l	knee_angle_l	knee_angle_l_beta	ankle_angle_l	subtalar_angle_l	mtp_angle_l	lumbar_extension	lumbar_bending	lumbar_rotation	arm_flex_r	arm_add_r	arm_rot_r	elbow_flex_r	pro_sup_r	wrist_flex_r	wrist_dev_r	arm_flex_l	arm_add_l	arm_rot_l	elbow_flex_l	pro_sup_l	wrist_flex_l	wrist_dev_l
      5.74500000	    -21.70213483	      2.59916994	     -1.02606932	     -0.36066502	      0.88826325	     -0.89984639	     58.82303310	    -13.24900216	     -3.04664013	     60.00946444	      1.04736274	     26.37809486	      0.00000000	      0.00000000	     58.33280476	     -6.18372646	      1.39132690	     60.66231480	      1.05875713	     27.43549448	      0.00000000	      0.00000000	    -26.10761476	      0.71084042	     -6.80780368	     -4.16519147	    -60.11191128	     61.39325276	    105.13924512	     87.57919325	      0.00000000	      0.00000000	    -20.59838879	    -54.59335349	     42.89957430	     96.45030589	     87.97663364	      0.00000000	      0.00000000
      5.75000000	    -20.97361337	      2.53942413	     -1.21895180	     -0.35603141	      0.89494880	     -0.89949993	     57.12314446	    -13.19148708	     -3.54147984	     58.75766366	      1.02551469	     25.81062530	      0.00000000	      0.00000000	     56.67437549	     -6.41398343	      1.05911139	     59.54752055	      1.03930030	     26.95662419	      0.00000000	      0.00000000	    -25.69267448	      0.67740596	     -6.65351103	     -5.16976331	    -59.97340843	     60.40448813	    105.02832998	     87.57984042	      0.00000000	      0.00000000	    -21.79681468	    -54.16601622	     41.55228570	     96.30133704	     87.99981707	      0.00000000	      0.00000000
      5.75500000	    -20.34244124	      2.48645259	     -1.37696550	     -0.35126229	      0.90153215	     -0.89916934	     55.49499045	    -13.15017174	     -4.06365338	     57.48270619	      1.00326249	     25.37247711	      0.00000000	      0.00000000	     55.09122176	     -6.58090948	      0.78045628	     58.40081903	      1.01928658	     26.58824604	      0.00000000	      0.00000000	    -25.24898593	      0.63270232	     -6.59362667	     -6.87814570	    -59.81833113	     58.53023693	    105.04788483	     87.58290334	      0.00000000	      0.00000000	    -23.75878558	    -53.60277407	     39.11147038	     96.57389492	     87.98984457	      0.00000000	      0.00000000
      5.76000000	    -19.73856548	      2.29774826	     -1.54622084	     -0.34654933	      0.90845969	     -0.89857558	     53.80051428	    -12.97298611	     -4.68861953	     56.05699796	      0.97837918	     24.77009204	      0.00000000	      0.00000000	     53.53706415	     -6.93150954	      0.43689124	     57.20200900	      0.99836340	     25.89977427	      0.00000000	      0.00000000	    -24.75991002	      0.69657980	     -6.42309830	     -8.35902753	    -59.64204429	     56.88227782	    105.11192884	     87.55499861	      0.00000000	      0.00000000	    -25.45204493	    -53.11597849	     37.11377019	     96.79874896	     88.00741598	      0.00000000	      0.00000000
      5.76500000	    -18.96325032	      2.14563023	     -1.61413929	     -0.34136809	      0.91600913	     -0.89838111	     51.81980869	    -12.95203054	     -5.46560516	     54.51705282	      0.95150207	     24.15105452	      0.00000000	      0.00000000	     51.68630913	     -7.12108505	      0.13683297	     55.81260096	      0.97411365	     25.41579002	      0.00000000	      0.00000000	    -24.43710909	      0.80450638	     -6.36740359	     -9.81759659	    -59.47883286	     55.27877348	    105.10916114	     87.52569413	      0.00000000	      0.00000000	    -26.96540490	    -52.55456408	     35.34598962	     96.94703587	     88.00510693	      0.00000000	      0.00000000
      5.77000000	    -18.16183816	      2.10168823	     -1.82513735	     -0.33599756	      0.92396430	     -0.89797851	     49.82104142	    -12.88630727	     -6.11226931	     52.87364324	      0.92281916	     23.37664464	      0.00000000	      0.00000000	     49.72001392	     -7.38773566	     -0.50141092	     54.33100712	      0.94825496	     24.68383043	      0.00000000	      0.00000000	    -24.07719195	      0.73884117	     -6.20162541	    -11.00431671	    -59.29548788	     54.11066475	    105.04019875	     87.50313788	      0.00000000	      0.00000000	    -28.18547122	    -52.04542483	     33.97803004	     97.05772268	     87.99612769	      0.00000000	      0.00000000
      5.77500000	    -17.39384706	      1.93516923	     -1.93632172	     -0.33057121	      0.93209975	     -0.89757933	     47.72918620	    -12.77042122	     -6.93760753	     51.07648640	      0.89145286	     22.58344630	      0.00000000	      0.00000000	     47.78142347	     -7.66172195	     -0.95380996	     52.76862098	      0.92098618	     23.98951777	      0.00000000	      0.00000000	    -23.77728540	      0.81653942	     -6.13099895	    -12.69567608	    -59.06866495	     52.22631512	    105.11369651	     87.48900283	      0.00000000	      0.00000000	    -29.95728255	    -51.42930153	     31.85300037	     97.39574989	     88.00420262	      0.00000000	      0.00000000
      5.78000000	    -16.55684772	      1.86576020	     -2.12334218	     -0.32500360	      0.94086367	     -0.89709152	     45.53962016	    -12.66718374	     -7.69458792	     49.13151894	      0.85750677	     21.61110898	      0.00000000	      0.00000000	     45.67842366	     -7.92450557	     -1.66141001	     51.07825378	      0.89148370	     23.00327671	      0.00000000	      0.00000000	    -23.49739124	      0.76818074	     -5.95832245	    -13.98096054	    -58.82309113	     50.87365686	    105.00943847	     87.49108494	      0.00000000	      0.00000000	    -31.21279148	    -50.88563079	     30.41929658	     97.60882708	     88.00398212	      0.00000000	      0.00000000
      5.78500000	    -15.70309727	      1.88992643	     -2.32626420	     -0.31897570	      0.94985276	     -0.89649702	     43.28326317	    -12.62866798	     -8.46579098	     47.08471228	      0.82178326	     20.59701076	      0.00000000	      0.00000000	     43.39882964	     -8.13434905	     -2.58466989	     49.16209345	      0.85804040	     22.07562346	      0.00000000	      0.00000000	    -23.21898768	      0.61200322	     -5.84465660	    -15.46582972	    -58.48922082	     49.38489881	    104.91941283	     87.51593411	      0.00000000	      0.00000000	    -32.68166723	    -50.32656806	     28.89029034	     97.81895051	     88.03738910	      0.00000000	      0.00000000
      5.79000000	    -15.03500120	      1.83703180	     -2.46014164	     -0.31316374	      0.95907774	     -0.89600380	     41.10118665	    -12.48235148	     -9.18468138	     44.76088991	      0.78122491	     19.33009625	      0.00000000	      0.00000000	     41.33537427	     -8.30981892	     -3.33504280	     47.14735371	      0.82287656	     20.73046600	      0.00000000	      0.00000000	    -22.73805794	      0.57081493	     -5.74012080	    -16.58195535	    -58.17983687	     48.24151552	    104.72464383	     87.49418234	      0.00000000	      0.00000000	    -33.85682195	    -49.77773519	     27.64253119	     98.04533158	     87.99987560	      0.00000000	      0.00000000
      5.79500000	    -14.09444318	      1.89078790	     -2.65481762	     -0.30704174	      0.96893045	     -0.89542207	     38.61176635	    -12.41853234	     -9.96189587	     42.37107018	      0.73951468	     17.98939265	      0.00000000	      0.00000000	     38.84479261	     -8.43653191	     -4.39569302	     44.95628097	      0.78463512	     19.41791428	      0.00000000	      0.00000000	    -22.57016506	      0.37046372	     -5.64324746	    -17.82731637	    -57.86104577	     46.88873566	    104.65157066	     87.47195708	      0.00000000	      0.00000000	    -35.19655340	    -49.30847613	     26.16204048	     98.43261888	     87.99749928	      0.00000000	      0.00000000
      5.80000000	    -13.26102174	      1.99594028	     -2.93488389	     -0.30101632	      0.97894827	     -0.89464174	     36.23689305	    -12.31944720	    -10.70405923	     39.88398231	      0.69610681	     16.61701258	      0.00000000	      0.00000000	     36.41279722	     -8.53543170	     -5.55399174	     42.65486103	      0.74446777	     17.97661857	      0.00000000	      0.00000000	    -22.42427167	      0.15370789	     -3.64365284	    -24.80107881	    -56.26245729	     39.54321443	    105.01053388	     87.60616595	      0.00000000	      0.00000000	    -33.32312812	    -50.24312354	     28.14854553	     98.82893653	     88.02982516	      0.00000000	      0.00000000
      5.80500000	    -12.36133360	      2.07181928	     -3.19372130	     -0.29508172	      0.98954581	     -0.89376364	     33.68032968	    -12.15199588	    -11.43410223	     37.10752580	      0.64764850	     14.80235939	      0.00000000	      0.00000000	     33.83524115	     -8.61200251	     -6.79472729	     40.16469344	      0.70100614	     16.06630778	      0.00000000	      0.00000000	    -22.24203733	     -0.10293817	     -3.48562575	    -25.64350327	    -55.91330569	     38.67489083	    104.91232385	     87.59790503	      0.00000000	      0.00000000	    -34.46229247	    -49.90874326	     27.07886597	     99.26369227	     88.00284842	      0.00000000	      0.00000000
      5.81000000	    -11.46980274	      2.14767716	     -3.41162533	     -0.28907504	      1.00027213	     -0.89297149	     31.08292429	    -11.97527362	    -12.17865802	     34.21248110	      0.59712044	     12.84301521	      0.00000000	      0.00000000	     31.28231029	     -8.60454834	     -7.96602757	     37.64538932	      0.65703599	     14.06482232	      0.00000000	      0.00000000	    -22.11119336	     -0.34638026	     -3.41040644	    -26.65778345	    -55.51550413	     37.50981183	    104.92258179	     87.59856155	      0.00000000	      0.00000000	    -35.84932553	    -49.49339385	     25.72096442	     99.81465641	     88.02664179	      0.00000000	      0.00000000
      5.81500000	    -10.73241811	      2.28724527	     -3.52382814	     -0.28327455	      1.01114196	     -0.89225862	     28.63882390	    -11.85841734	    -12.89289728	     31.25518793	      0.54550594	     10.40542529	      0.00000000	      0.00000000	     28.92640513	     -8.43212227	     -8.96451590	     35.08317489	      0.61231691	     11.54346974	      0.00000000	      0.00000000	    -21.79363615	     -0.64777804	     -3.42939644	    -27.38375124	    -55.15505754	     36.73886365	    104.76665616	     87.58372777	      0.00000000	      0.00000000	    -36.91528320	    -49.23444022	     24.85931106	    100.23444312	     88.02037753	      0.00000000	      0.00000000
      5.82000000	     -9.85415791	      2.37811007	     -3.66419919	     -0.27722179	      1.02225146	     -0.89163049	     25.98259558	    -11.69634639	    -13.74819728	     28.18612322	      0.49194065	      7.96566035	      0.00000000	      0.00000000	     26.30654852	     -8.26031879	    -10.16997562	     32.30188163	      0.56377419	      9.19559916	      0.00000000	      0.00000000	    -21.65599702	     -0.85805170	     -3.43148295	    -28.35153463	    -54.83398011	     35.62370157	    104.93639628	     87.60462500	      0.00000000	      0.00000000	    -38.12181362	    -48.83568871	     23.70475647	    100.84630825	     88.04860249	      0.00000000	      0.00000000
